<svg width="28" height="28" viewBox="0 0 28 28" fill="none" xmlns="http://www.w3.org/2000/svg">
<g clip-path="url(#clip0_3302_20859)">
<path d="M14.0001 10.2109C11.9118 10.2109 10.2119 11.9108 10.2119 13.9992C10.2119 16.0875 11.9118 17.7874 14.0001 17.7874C16.0885 17.7874 17.7884 16.0875 17.7884 13.9992C17.7884 11.9108 16.0885 10.2109 14.0001 10.2109Z" fill="#404040"/>
<path d="M14.0001 10.2109C11.9118 10.2109 10.2119 11.9108 10.2119 13.9992C10.2119 16.0875 11.9118 17.7874 14.0001 17.7874C16.0885 17.7874 17.7884 16.0875 17.7884 13.9992C17.7884 11.9108 16.0885 10.2109 14.0001 10.2109Z" fill="white"/>
<path d="M14.0002 12.1875C13.0015 12.1875 12.1885 13.0005 12.1885 13.9993C12.1885 14.9981 13.0015 15.811 14.0002 15.811C14.999 15.811 15.812 14.9981 15.812 13.9993C15.812 13.0005 14.999 12.1875 14.0002 12.1875Z" fill="#404040"/>
<path d="M18.1191 8.56641C17.4831 8.56641 16.9648 9.08261 16.9648 9.71935C16.9648 10.3561 17.4831 10.8723 18.1191 10.8723C18.7551 10.8723 19.2707 10.3561 19.2707 9.71935C19.2707 9.08261 18.7551 8.56641 18.1191 8.56641Z" fill="white"/>
<path d="M14 0C6.28113 0 0 6.28113 0 14C0 21.7189 6.28113 28 14 28C21.7189 28 28 21.7189 28 14C28 6.28113 21.7189 0 14 0ZM22.0002 16.5195C22.0002 19.5417 19.5417 22.0002 16.5195 22.0002H11.4805C8.45833 22.0002 5.99976 19.5417 5.99976 16.5195V11.4805C5.99976 8.45833 8.45833 5.99976 11.4805 5.99976H16.5195C19.5417 5.99976 22.0002 8.45833 22.0002 11.4805V16.5195Z" fill="#404040"/>
<path d="M16.4562 7.08203H11.4172C9.02725 7.08203 7.08252 9.02676 7.08252 11.4167V16.4557C7.08252 18.8456 9.02725 20.7904 11.4172 20.7904H16.4562C18.8461 20.7904 20.7909 18.8456 20.7909 16.4557V11.4167C20.7909 9.02676 18.8461 7.08203 16.4562 7.08203ZM13.9367 18.0015C11.6951 18.0015 9.87137 16.1777 9.87137 13.9362C9.87137 11.6947 11.6951 9.87088 13.9367 9.87088C16.1782 9.87088 18.002 11.6947 18.002 13.9362C18.002 16.1777 16.1782 18.0015 13.9367 18.0015ZM18.1367 11.2597C17.296 11.2597 16.6132 10.5769 16.6132 9.7362C16.6132 8.89637 17.296 8.21267 18.1367 8.21267C18.9765 8.21267 19.6602 8.89637 19.6602 9.7362C19.6602 10.5769 18.9765 11.2597 18.1367 11.2597Z" fill="#404040"/>
</g>
<defs>
<clipPath id="clip0_3302_20859">
<rect width="28" height="28" fill="white"/>
</clipPath>
</defs>
</svg>
