<svg width="28" height="28" viewBox="0 0 28 28" fill="none" xmlns="http://www.w3.org/2000/svg">
<g clip-path="url(#clip0_3302_20860)">
<path fill-rule="evenodd" clip-rule="evenodd" d="M17.5994 0.647435C10.2709 -1.31788 2.73298 3.03824 0.769381 10.3745C-0.362972 14.6037 0.620974 18.9487 3.0521 22.1913L4.694 23.8804L6.75283 25.4451C7.88518 26.1159 9.24487 26.8889 10.4862 27.2217C17.8147 29.1879 25.3526 24.8317 27.3162 17.4946C29.2798 10.1583 24.9288 2.61361 17.5994 0.647435ZM7.20406 11.1346H7.20235C7.20235 10.824 7.28298 10.3694 7.35075 10.1146C7.61325 9.12121 8.24634 8.22476 9.08016 7.67403C9.84965 7.16619 10.7547 6.96116 11.6794 6.96116L11.7601 6.96545L14.494 6.96288V6.96202H14.5318L14.5892 6.96545C15.152 6.98518 15.6778 7.09842 16.1522 7.28971C17.6921 7.91165 18.6365 9.3168 18.6717 10.987L18.6949 11.6544C18.7498 11.6699 18.8081 11.687 18.8707 11.7076V11.7067H18.8716C19.6617 11.9684 20.2999 12.5371 20.6199 13.3255C20.7108 13.5494 20.7717 13.7836 20.812 14.0306C20.8807 14.4527 20.8807 14.8936 20.8832 15.3457H20.8841V15.35L20.8884 15.9642H20.8901V15.9762L20.8909 15.9814C20.8909 16.2962 20.8515 16.7003 20.8026 16.9816C20.4663 18.9409 19.1384 20.3564 17.1705 20.715C16.8814 20.7681 16.5803 20.7973 16.268 20.8025C16.2432 20.8067 16.2191 20.8076 16.1943 20.8076H11.9376C11.2179 20.8076 10.5565 20.7295 9.8934 20.4876C8.64438 20.0304 7.77453 19.1074 7.4211 17.824C7.2521 17.2107 7.19892 16.5458 7.19892 15.8904L7.20149 15.8158H7.19977V15.809L7.19892 15.6382L7.20149 15.5859H7.19977C7.19977 15.5773 7.20063 15.5679 7.20149 15.5585L7.20406 11.1346ZM10.5411 15.3097C10.825 15.0257 11.2171 14.8499 11.6503 14.8499H16.4079C16.8419 14.8499 17.2348 15.0257 17.5196 15.3097L17.5188 15.3114C17.8036 15.5971 17.9794 15.99 17.9794 16.4223C17.9794 16.8555 17.8027 17.2484 17.5171 17.5341C17.2322 17.8189 16.8402 17.9947 16.4079 17.9947H11.6503C11.2171 17.9947 10.825 17.8189 10.5411 17.5341C10.2554 17.2484 10.0778 16.8555 10.0778 16.4223C10.0778 15.9891 10.2554 15.5962 10.5411 15.3097ZM10.7933 12.1005C10.5136 11.8114 10.3438 11.4159 10.3506 10.9819C10.3584 10.5469 10.5385 10.1592 10.8259 9.8804C11.1133 9.6016 11.507 9.43175 11.9394 9.43604L14.3156 9.43261H14.3242C14.7608 9.43947 15.1511 9.63334 15.4291 9.93273C15.707 10.2304 15.8751 10.637 15.8683 11.0685C15.8614 11.5 15.6821 11.8757 15.3973 12.146C15.1108 12.417 14.7222 12.5783 14.2993 12.5783V12.5757L11.9033 12.5775H11.8947C11.4615 12.5697 11.0721 12.3887 10.7933 12.1005Z" fill="#404040"/>
</g>
<defs>
<clipPath id="clip0_3302_20860">
<rect width="28" height="28" fill="white"/>
</clipPath>
</defs>
</svg>
