<svg width="28" height="28" viewBox="0 0 28 28" fill="none" xmlns="http://www.w3.org/2000/svg">
<g clip-path="url(#clip0_3302_20857)">
<path d="M14 0C6.26654 0 0 6.26654 0 14C0 21.7335 6.26654 28 14 28C21.7335 28 28 21.7335 28 14C27.988 6.26654 21.7214 0 14 0ZM22.0603 17.9152C21.9033 18.9455 21.006 19.6969 19.9637 19.6969H8.02426C6.98199 19.6969 6.08468 18.9455 5.9277 17.9152C5.78186 16.9578 5.63603 15.6239 5.62402 13.988C5.63603 12.3512 5.76985 11.0301 5.9277 10.0608C6.08468 9.03052 6.98199 8.27904 8.02426 8.27904H19.9637C21.006 8.27904 21.9033 9.03052 22.0603 10.0608C22.2061 11.0181 22.3511 12.3512 22.364 13.988C22.3511 15.6239 22.2061 16.9578 22.0603 17.9152Z" fill="#404040"/>
<path d="M12.2305 11.7227V16.2675L16.4605 14.0011L12.2305 11.7227Z" fill="#404040"/>
</g>
<defs>
<clipPath id="clip0_3302_20857">
<rect width="28" height="28" fill="white"/>
</clipPath>
</defs>
</svg>
