<svg width="28" height="28" viewBox="0 0 28 28" fill="none" xmlns="http://www.w3.org/2000/svg">
<g clip-path="url(#clip0_3302_20858)">
<path d="M28 14C28 6.26826 21.7317 0 14 0C6.26826 0 0 6.26826 0 14C0 20.988 5.11961 26.7793 11.8125 27.8301V18.0464H8.2576V14H11.8125V10.9152C11.8125 7.40662 13.9022 5.46875 17.1002 5.46875C18.6324 5.46875 20.2339 5.7424 20.2339 5.7424V9.1875H18.4694C16.7297 9.1875 16.1875 10.2667 16.1875 11.3741V14H20.0701L19.4499 18.0464H16.1875V27.8301C22.8804 26.7793 28 20.988 28 14Z" fill="#404040"/>
</g>
<defs>
<clipPath id="clip0_3302_20858">
<rect width="28" height="28" fill="white"/>
</clipPath>
</defs>
</svg>
